<svg xmlns="http://www.w3.org/2000/svg" viewBox="0 0 2000 1440">
  <title>Asset 4</title>
  <polygon points="1973.07 995.61 1946 967.81 1918.93 995.61 1891.86 967.81 1864.79 995.61 1837.72 967.81 1810.65 995.61 1783.58 967.81 1757.52 995.61 1730.45 967.81 1703.38 995.61 1676.31 967.81 1649.24 995.61 1621.28 968.2 1594.51 995.96 1567.44 968.16 1540.37 995.96 1513.3 968.16 1486.23 995.96 1459.17 968.16 1432.1 995.96 1405.03 968.16 1377.96 995.96 1350.89 968.16 1323.82 995.96 1296.75 968.16 1269.68 995.96 1242.61 968.16 1216.55 995.96 1189.48 968.16 1162.41 995.96 1135.34 968.16 1108.27 995.96 1081.2 968.16 1053.83 996 1026.76 968.2 999.69 996 972.62 968.2 945.55 996 918.49 968.2 891.41 996 864.35 968.2 837.28 996 810.21 968.2 783.14 996 756.07 968.2 729 996 701.93 968.2 675.86 996 648.79 968.2 621.73 996 594.66 968.2 567.59 996 540.52 968.2 513.45 996 486.38 968.2 459.31 996 432.24 968.2 405.17 996 378.1 968.2 351.03 996 323.96 968.2 296.9 996 269.83 968.2 242.76 996 215.69 968.2 188.62 996 161.55 968.2 135.48 996 108.41 968.2 81.34 996 54.27 968.2 27.21 996 0.14 968.2 0.14 0 0 0 0 1440 2000 1440 2000 968 1973.07 995.61" style="fill: #2d9161"/>
</svg>
