<svg xmlns="http://www.w3.org/2000/svg" viewBox="0 0 2000 1440">
  <title>Asset 3</title>
  <path
    d="M2000,968v472H0V0H.14V968.2L27.21,996l27.06-27.8L81.34,996l27.07-27.8L135.48,996l26.07-27.8L188.62,996l27.07-27.8L242.76,996l27.07-27.8L296.9,996,324,968.2,351,996l27.07-27.8L405.17,996l27.07-27.8L459.31,996l27.07-27.8L513.45,996l27.07-27.8L567.59,996l27.07-27.8L621.73,996l27.06-27.8L675.86,996l26.07-27.8L729,996l27.07-27.8L783.14,996l27.07-27.8L837.28,996l27.07-27.8L891.42,996l27.06-27.8L945.55,996l27.07-27.8L999.69,996l27.07-27.8,27.07,27.8,27.37-27.84,27.07,27.8,27.07-27.8,27.07,27.8,27.07-27.8,27.06,27.8,26.07-27.8,27.07,27.8,27.07-27.8,27.07,27.8,27.07-27.8L1378,996l27.07-27.8L1432.1,996l27.07-27.8,27.06,27.8,27.07-27.8,27.07,27.8,27.07-27.8,27.07,27.8,26.77-27.76,28,27.41,27.07-27.8,27.07,27.8,27.07-27.8,27.07,27.8,26.06-27.8,27.07,27.8,27.07-27.8,27.07,27.8,27.07-27.8,27.07,27.8,27.07-27.8,27.07,27.8Z"
    style="fill: #2d9161"
  />
</svg>
