<svg xmlns="http://www.w3.org/2000/svg" viewBox="0 0 2000 996">
  <title>zigzag</title>
  <path
    d="M2000,967.81l-27.07,27.8-27.07-27.8-27.07,27.8-27.07-27.8-27.07,27.8-27.07-27.8-27.06,27.8-27.07-27.8-26.07,27.8-27.07-27.8-27.07,27.8-27.07-27.8-27.07,27.8-28-27.41L1594.37,996l-27.06-27.8L1540.24,996l-27.07-27.8L1486.1,996,1459,968.16,1432,996l-27.07-27.8L1377.82,996l-27.07-27.8L1323.68,996l-27.07-27.8L1269.54,996l-27.07-27.8L1216.41,996l-27.07-27.8L1162.27,996l-27.07-27.8L1108.13,996l-27.07-27.8L1053.69,996l-27.06-27.8L999.56,996l-27.07-27.8L945.42,996l-27.07-27.8L891.28,996l-27.07-27.8L837.14,996l-27.07-27.8L783,996l-27.07-27.8L728.86,996l-27.07-27.8L675.73,996l-27.07-27.8L621.59,996l-27.07-27.8L567.45,996l-27.07-27.8L513.31,996l-27.07-27.8L459.17,996l-27.06-27.8L405,996,378,968.2,350.9,996l-27.07-27.8L296.76,996l-27.07-27.8L242.62,996l-27.07-27.8L188.48,996l-27.07-27.8L135.35,996l-27.07-27.8L81.21,996,54.14,968.2,27.07,996,0,968.2V0H1999.73Z"
  />
</svg>
